Patient4_TMGait_0pt4_02_right_06_EMG.mot
version=1
nRows=23
nColumns=33
inDegrees=no
endheader
time	1LAddLong	2LGlutMax	3LGlutMed	4LIliopsoas	5LSemiMemb	6LBicFemLong	7LRecFem	8LVastMed	9LVastLat	10LGasMed	11LTibAnt	12lTibPost	13LPeroneusLong	14LSol	15LExtDigLong	16LFlexDigLong	17RAddLong	18RGlutMax	19RGlutMed	20RIliopsoas	21RSemiMemb	22RBicFemLong	23RRecFem	24RVastMed	25RVastLat	26RGasMed	27RTibAnt	28RTibPost	29RPeroneusLong	30RSol	31RExtDigLong	32RFlexDigLong
8.808	-0.010986	-0.1355	0.045929	0.025177	0.00061	0.016632	0.022736	0.006104	-0.12848	0.020905	0.15015	0.00824	0.047607	0.025482	0.14771	-0.009918	0.010071	-0.076294	-0.015717	0.035553	-0.001984	0.059967	-0.10269	-0.17059	-0.006256	0.010986	0.02243	0.000916	0.039978	-0.11276	-0.00061	0.005951
8.809	0.009308	-0.13306	0.075378	0.010071	-0.001068	0.004578	-0.088959	-0.001526	-0.024414	-0.024872	0.041809	0.009613	0.16876	-0.030823	0.059814	-0.001068	0.023041	-0.070953	-0.37521	0.027161	-0.010376	0.058594	-0.075378	-0.22522	-0.007324	0.002747	-0.046539	-0.005493	0.11887	0.005646	-0.002136	0.002441
8.81	0.011139	-0.13382	0.02243	-0.02121	0.010529	-0.016479	-0.03418	-0.001678	-0.003052	-0.020599	-0.058136	0.006866	0.18173	-0.096893	-0.10178	-0.005646	0.028381	-0.071716	-0.31601	-0.007629	-0.003357	0.040131	0.054779	-0.17777	-0.02182	-0.000305	-0.027618	-0.001984	0.6987	0.061188	0.001068	0.003357
8.811	0.005951	-0.11231	0.035095	-0.02182	0.004425	-0.012207	0.037994	0.002136	-0.007782	-0.011749	0.017395	0.009918	0.1001	-0.046997	-0.24506	0.005341	0.028076	-0.015411	0.26977	-0.032959	0.012054	0.04715	0.010986	-0.21729	-0.012512	0.000153	0.095673	-0.006561	0.93597	-0.009918	0.003204	0.003204
8.812	0.011139	-0.12222	-0.090332	-0.001984	-0.013123	-0.007782	0.046234	-0.000763	0.086975	-0.040588	0.089417	0.001373	0.009766	-0.092926	-0.32928	-0.017853	-0.00824	-0.033722	0.11734	-0.053406	0.030975	0.068207	0.02182	-0.18219	-0.001068	0.005951	0.021515	-0.008698	0.52094	-0.042419	-0.003357	0.005035
8.813	0.008392	-0.10239	-0.079803	-0.009918	-0.029602	0.009308	0.078735	-0.006866	0.10223	0.008392	0.088043	0.00885	-0.046539	-0.050812	-0.271	-0.006561	-0.014038	-0.010681	-0.26032	0.044098	0.000305	0.06424	0.044861	-0.10529	-0.002747	0.001526	0.0177	-0.005341	-0.39917	0.00824	-0.006714	0.002136
8.814	0.003815	-0.079803	-0.050812	-0.004425	-0.041504	0.020752	0.12268	-0.007172	0.099335	0.010986	-0.062866	0.006409	-0.040436	-0.057983	-0.25879	-0.008392	0.002747	-0.044861	-0.045929	0.015869	-0.061951	0.068817	0.004272	-0.1059	0.014648	-0.007629	-0.009613	-0.003967	-0.57617	0.03418	-0.004272	-0.000305
8.815	0.000305	-0.089722	-0.063171	0.021973	-0.048676	0.034637	0.11475	-0.005646	0.090027	-0.028076	-0.14374	0.007629	0.003357	-0.046844	-0.21973	-0.011292	-0.007935	-0.032959	0.27588	0.001373	-0.10651	0.042572	-0.082855	-0.039978	0.012207	-0.004425	-0.006714	-0.001984	0.36163	-0.005341	-0.000916	0.00412
8.816	0.003967	-0.088806	0.093079	0.008698	0.001831	0.008698	0.10727	0.004425	0.076294	-0.02655	-0.043182	0.009918	0.007935	-0.10544	-0.024414	0.003967	-0.016479	-0.057373	0.64712	0.007172	-0.16373	0.057526	-0.19974	-0.04837	-0.015869	-0.008392	-0.019531	-0.002289	0.24994	0.003204	-0.003815	-0.001831
8.817	0.006714	-0.12283	0.28488	0.015869	0.008545	0.010834	0.090942	0.015411	0.04837	-0.003815	0.065002	0.006409	-0.015411	-0.10712	0.39932	-0.008087	-0.021057	-0.12085	0.52811	-0.009155	-0.13046	0.05722	-0.31876	-0.001831	0.010223	-0.011292	-0.035553	-0.001068	0.30395	0.005798	-0.006104	-0.00351
8.818	0.008392	-0.11581	0.19089	0.020447	0.039063	-0.003052	0.087585	0.011597	0.053711	-0.044556	0.20462	0.011292	-0.073242	-0.10712	0.17563	0.004425	-0.028839	-0.16876	0.37766	0.002594	0.12985	0.08728	-0.13962	0.036469	0.03067	-0.00824	0.005798	0.000916	0.14343	0.040283	-0.001068	0.000458
8.819	0.007935	-0.13763	0.16678	0.006409	0.052795	-0.020142	0.079346	0.008392	0.053864	-0.020905	0.22537	0.011444	-0.098877	-0.1709	0.12177	0.002899	-0.042267	-0.14526	0.43243	-0.018311	0.18601	0.090027	0.005188	0.07309	0.03418	0.002441	-0.022583	-0.002441	0.16663	-0.009766	-0.001221	0.001984
8.82	0.010834	-0.085297	0.11566	0.016632	0.032654	-0.002899	0.091858	0.011902	-0.072937	-0.015411	0.054626	0.012054	-0.037079	-0.080872	0.099335	0.001373	-0.057373	-0.17349	-0.11795	0.080872	0.076904	0.066833	-0.025177	0.073395	0.045166	-0.000305	-0.024414	0.001526	0.18066	-0.05127	-0.003357	-0.002594
8.821	0.005646	-0.091705	0.12878	-0.007629	0.021057	0.005188	0.10452	0.002441	-0.059662	0.050354	-0.083313	0.008545	-0.022736	-0.032196	0.080261	-0.003204	-0.051575	-0.17777	-0.49072	0.071106	0.006409	0.084229	-0.12116	0.067444	0.032806	0.000153	0.17197	0.00351	0.2179	-0.030212	0.000763	0.001984
8.822	-0.002747	-0.091095	0.10437	-0.012207	0.008392	0.023346	0.11887	0.002594	0.013885	0.079346	-0.12329	0.013275	0.000305	-0.020294	0.029144	-0.005798	-0.043182	-0.11566	0.088654	0.048981	-0.062103	0.12192	-0.11444	0.10483	0.02182	-0.000153	0.17456	0.003357	0.1976	-0.068665	0.00061	-0.001068
8.823	0.000305	-0.077972	0.13489	0.006104	-0.009308	-0.010071	0.033417	0.007019	0.1091	0.16113	-0.12741	0.009613	0.026093	-0.001068	-0.086823	-0.000305	-0.027924	-0.10376	0.42755	0.028534	0.002899	0.072174	-0.052185	0.054626	0.007782	-0.008698	0.23086	0.005493	0.053558	-0.070801	-0.007324	-0.00061
8.824	-0.003357	-0.097198	0.14084	0.016022	0.007019	-0.020905	-0.007629	0.010376	0.27924	0.17151	-0.067596	0.010986	0.041046	0.017395	-0.088806	0.004578	-0.013428	-0.11765	0.35828	0.031586	-0.02243	0.054016	0.079956	0.028687	0.010986	-0.011139	0.26627	0.002899	-0.20111	-0.049133	-0.000458	-0.007629
8.825	-0.001221	-0.10086	0.068054	0.024719	0.009308	-0.022125	0.077057	-0.002594	0.25207	0.00885	-0.0383	0.010834	0.054321	0.000916	-0.012512	-0.00885	0.001526	-0.09964	-0.084229	0.010834	-0.021057	0.042114	0.06958	0.12146	0.041504	-0.011597	0.25284	0.005341	-0.23926	-0.012054	-0.003967	-0.000916
8.826	0.019379	-0.10864	0.073547	-0.001373	0.010376	-0.036469	0.012054	-0.07782	0.052795	0.032349	-0.028229	0.009613	0.056915	-0.038605	-0.003967	-0.008545	0.032959	-0.055389	0.005035	-0.05661	-0.000916	0.012054	0.005951	0.095215	0.006409	-0.008545	0.19241	0.002441	0.028229	-0.015106	-0.001373	-0.000916
8.827	0.015106	-0.10544	0.086823	-0.007324	0.005341	-0.034485	-0.075989	-0.044403	-0.1648	0.05722	0.005341	0.007782	0.042114	-0.046997	-0.015869	-0.003052	0.06073	-0.019379	-0.059052	-0.053558	0.003357	-0.022736	-0.084534	0.003967	-0.013275	0.001984	-0.17181	0.003967	0.44968	-0.040436	0.000763	0.000153
8.828	0.010681	-0.10147	0.065308	0.007019	0.012817	-0.000305	0.028687	-0.007629	-0.46066	-0.08667	0.039215	0.00473	0.024567	-0.038605	-0.077057	0.006409	0.066681	-0.056	-0.11459	-0.12924	-0.041504	-0.007324	-0.094147	-0.10635	-0.010071	-0.000305	-0.28702	0.000458	0.32669	0.025635	-0.002136	0.005646
8.829	0.003967	-0.078888	0.027161	0.002594	0.001984	0.004272	0.020142	0.003967	-0.34164	-0.13107	0.028229	0.011597	-0.014954	-0.042114	0.21027	0.001678	0.010529	-0.035553	-0.18204	-0.12985	-0.085907	0.063171	-0.1059	-0.086975	0.002594	-0.005493	-0.1059	-0.004272	-0.063782	0.070038	-0.003052	0.000916
8.83	0.005798	-0.076599	0.006409	0.000153	0.002899	0.019226	0.058746	0.001068	-0.14282	-0.056152	-0.031738	0.007477	-0.015869	-0.028076	0.22217	-0.000153	-0.009766	-0.019989	-0.14938	-0.11826	-0.15778	0.1442	-0.10193	0.021362	0.015717	-0.005493	-0.048218	0.002747	-0.23468	0.058136	-0.000153	0
